<svg xmlns="http://www.w3.org/2000/svg" viewBox="0 0 40 40"><defs><style>.cls-1{fill:none;}.cls-2{fill:#231f20;}.cls-3{fill:#fac106;}.cls-4{fill:#f4b311;}.cls-5{fill:#eaa809;}</style></defs><g id="Layer_2" data-name="Layer 2"><g id="Layer_1-2" data-name="Layer 1"><rect class="cls-1" width="40" height="40"/><path class="cls-2" d="M18.67,1.59l-14,8.06A2.64,2.64,0,0,0,3.34,12v16.1a2.64,2.64,0,0,0,1.34,2.3l14,8.06a2.69,2.69,0,0,0,2.66,0l14-8.06a2.64,2.64,0,0,0,1.34-2.3V12a2.64,2.64,0,0,0-1.34-2.3l-14-8.06A2.69,2.69,0,0,0,18.67,1.59ZM30.78,27.74l-9.45,5.44a2.69,2.69,0,0,1-2.66,0L9.22,27.74a2.68,2.68,0,0,1-1.33-2.31V14.57a2.68,2.68,0,0,1,1.33-2.31l9.45-5.44a2.69,2.69,0,0,1,2.66,0l9.45,5.44a2.68,2.68,0,0,1,1.33,2.31V25.43A2.68,2.68,0,0,1,30.78,27.74Z"/><polygon class="cls-3" points="32.11 13.03 32.11 19.5 27.18 19.5 27.18 18.38 21.95 18.38 21.95 12.85 20 11.73 20 6.06 32.11 13.03"/><polygon class="cls-4" points="12.81 15.87 12.81 24.14 20 28.27 20 33.94 7.89 26.97 7.89 13.03 20 6.06 20 11.73 12.81 15.87"/><polygon class="cls-5" points="32.11 19.5 32.11 26.97 20 33.94 20 28.27 27.18 24.14 27.18 19.5 32.11 19.5"/><polygon class="cls-2" points="27.18 18.38 27.18 24.14 20 28.27 12.81 24.14 12.81 15.87 20 11.73 21.95 12.85 21.95 18.38 27.18 18.38"/><line class="cls-1" x1="20" y1="35.26" x2="20" y2="33.94"/></g></g></svg>