<svg xmlns="http://www.w3.org/2000/svg" viewBox="0 0 500 150"><defs><style>.cls-1,.cls-10{fill:none;}.cls-2{font-size:39.73px;font-family:TheMix-ExtraBoldItalic, TheMix;font-weight:800;font-style:italic;}.cls-11,.cls-2{fill:#231f20;}.cls-3{letter-spacing:-0.02em;}.cls-4{letter-spacing:-0.06em;}.cls-5{letter-spacing:-0.02em;}.cls-6{letter-spacing:-0.03em;}.cls-7{letter-spacing:0em;}.cls-8{letter-spacing:0em;}.cls-9{letter-spacing:0.01em;}.cls-10{stroke:#231f20;stroke-miterlimit:10;}.cls-12{fill:#fac106;}.cls-13{fill:#f4b311;}.cls-14{fill:#eaa809;}</style></defs><g id="Layer_2" data-name="Layer 2"><g id="Layer_1-2" data-name="Layer 1"><rect class="cls-1" width="500" height="150"/><text class="cls-2" transform="translate(200.42 68.27)">ALE<tspan class="cls-3" x="60.35" y="0">R</tspan><tspan class="cls-4" x="81.84" y="0">T</tspan><tspan x="99.04" y="0">A </tspan><tspan class="cls-5" x="132.38" y="0">A</tspan><tspan x="156.33" y="0">O</tspan><tspan class="cls-6" x="0" y="36.41">C</tspan><tspan class="cls-7" x="20.38" y="36.41">ONS</tspan><tspan class="cls-8" x="92.65" y="36.41">U</tspan><tspan x="118.71" y="36.41">M</tspan><tspan class="cls-9" x="152.8" y="36.41">I</tspan><tspan x="164.12" y="36.41">DOR</tspan></text><line class="cls-10" x1="187.04" y1="26.09" x2="187.04" y2="123.91"/><path class="cls-11" d="M111.53,13,64.39,40.12A9,9,0,0,0,59.9,47.9v54.2a9,9,0,0,0,4.49,7.78L111.53,137a8.94,8.94,0,0,0,9,0l47.13-27.12a9,9,0,0,0,4.49-7.78V47.9a9,9,0,0,0-4.49-7.78L120.48,13A8.94,8.94,0,0,0,111.53,13Zm40.77,88.07-31.82,18.31a8.94,8.94,0,0,1-9,0L79.7,101.07a9,9,0,0,1-4.49-7.78V56.71a9,9,0,0,1,4.49-7.78l31.83-18.31a8.94,8.94,0,0,1,9,0L152.3,48.93a9,9,0,0,1,4.5,7.78V93.29A9,9,0,0,1,152.3,101.07Z"/><polygon class="cls-12" points="156.8 51.52 156.8 73.33 140.21 73.33 140.21 69.53 122.58 69.53 122.58 50.93 116 47.14 116 28.04 156.8 51.52"/><polygon class="cls-13" points="91.8 61.07 91.8 88.93 116 102.86 116 121.96 75.21 98.48 75.21 51.52 116 28.04 116 47.14 91.8 61.07"/><polygon class="cls-14" points="156.8 73.33 156.8 98.48 116 121.96 116 102.86 140.21 88.93 140.21 73.33 156.8 73.33"/><polygon class="cls-11" points="140.21 69.53 140.21 88.93 116 102.86 91.8 88.93 91.8 61.07 116 47.14 122.58 50.93 122.58 69.53 140.21 69.53"/><line class="cls-1" x1="116" y1="126.42" x2="116" y2="121.96"/></g></g></svg>