<svg xmlns="http://www.w3.org/2000/svg" viewBox="0 0 64 64"><defs><style>.cls-1{fill:#fbc106;}.cls-2{fill:#231f20;}.cls-3{fill:#fac106;}.cls-4{fill:#f4b311;}.cls-5{fill:#eaa809;}.cls-6{fill:none;}</style></defs><g id="Layer_2" data-name="Layer 2"><g id="Layer_1-2" data-name="Layer 1"><rect class="cls-1" width="64" height="64" rx="13.71"/><path class="cls-2" d="M30.36,9.34,13.14,19.25a3.28,3.28,0,0,0-1.64,2.84V41.91a3.28,3.28,0,0,0,1.64,2.84l17.22,9.91a3.31,3.31,0,0,0,3.28,0l17.22-9.91a3.28,3.28,0,0,0,1.64-2.84V22.09a3.28,3.28,0,0,0-1.64-2.84L33.64,9.34A3.31,3.31,0,0,0,30.36,9.34ZM45.27,41.53,33.64,48.22a3.31,3.31,0,0,1-3.28,0L18.73,41.53a3.3,3.3,0,0,1-1.64-2.84V25.31a3.3,3.3,0,0,1,1.64-2.84l11.63-6.69a3.31,3.31,0,0,1,3.28,0l11.63,6.69a3.3,3.3,0,0,1,1.64,2.84V38.69A3.3,3.3,0,0,1,45.27,41.53Z"/><polygon class="cls-3" points="46.91 23.42 46.91 31.39 40.85 31.39 40.85 30 34.41 30 34.41 23.2 32 21.82 32 14.84 46.91 23.42"/><polygon class="cls-4" points="23.15 26.91 23.15 37.09 32 42.18 32 49.16 17.09 40.58 17.09 23.42 32 14.84 32 21.82 23.15 26.91"/><polygon class="cls-5" points="46.91 31.39 46.91 40.58 32 49.16 32 42.18 40.85 37.09 40.85 31.39 46.91 31.39"/><polygon class="cls-2" points="40.85 30 40.85 37.09 32 42.18 23.15 37.09 23.15 26.91 32 21.82 34.41 23.2 34.41 30 40.85 30"/><line class="cls-6" x1="32" y1="50.79" x2="32" y2="49.16"/></g></g></svg>